HIERARCHY
ROOT Hips
{
	OFFSET -13.091600 -28.302996 44.698402
	CHANNELS 6 Xposition Yposition Zposition Zrotation Xrotation Yrotation
	JOINT Chest
	{
		OFFSET -0.673000 0.623899 5.369202
		CHANNELS 6 Xposition Yposition Zposition Zrotation Xrotation Yrotation
		JOINT Chest2
		{
			OFFSET 0.000000 0.000000 4.415001
			CHANNELS 6 Xposition Yposition Zposition Zrotation Xrotation Yrotation
			JOINT Neck
			{
				OFFSET 0.000000 0.000002 10.273300
				CHANNELS 6 Xposition Yposition Zposition Zrotation Xrotation Yrotation
				JOINT Head
				{
					OFFSET 0.000000 0.000000 2.173897
					CHANNELS 6 Xposition Yposition Zposition Zrotation Xrotation Yrotation
					End Site
					{
						OFFSET 0.000000 0.000000 9.961800
					}
				}
			}
			JOINT LeftCollar
			{
				OFFSET 2.359900 -0.565201 5.928101
				CHANNELS 6 Xposition Yposition Zposition Zrotation Xrotation Yrotation
				JOINT LeftShoulder
				{
					OFFSET 5.443700 0.000000 0.000000
					CHANNELS 6 Xposition Yposition Zposition Zrotation Xrotation Yrotation
					JOINT LeftElbow
					{
						OFFSET 0.000000 0.000000 -10.615799
						CHANNELS 6 Xposition Yposition Zposition Zrotation Xrotation Yrotation
						JOINT LeftWrist
						{
							OFFSET 0.000000 -0.000002 -13.110302
							CHANNELS 6 Xposition Yposition Zposition Zrotation Xrotation Yrotation
							End Site
							{
								OFFSET 0.000000 0.000000 -2.173901
							}
						}
					}
				}
			}
			JOINT RightCollar
			{
				OFFSET -2.636600 -1.718800 6.889698
				CHANNELS 6 Xposition Yposition Zposition Zrotation Xrotation Yrotation
				JOINT RightShoulder
				{
					OFFSET -4.139101 0.000000 0.000000
					CHANNELS 6 Xposition Yposition Zposition Zrotation Xrotation Yrotation
					JOINT RightElbow
					{
						OFFSET 0.000000 0.000000 -10.471802
						CHANNELS 6 Xposition Yposition Zposition Zrotation Xrotation Yrotation
						JOINT RightWrist
						{
							OFFSET 0.000000 0.000000 -12.281898
							CHANNELS 6 Xposition Yposition Zposition Zrotation Xrotation Yrotation
							End Site
							{
								OFFSET 0.000000 -0.000002 -2.173901
							}
						}
					}
				}
			}
		}
	}
	JOINT LeftHip
	{
		OFFSET 2.273400 0.176701 -2.518002
		CHANNELS 6 Xposition Yposition Zposition Zrotation Xrotation Yrotation
		JOINT LeftKnee
		{
			OFFSET 0.000000 -0.000002 -20.456402
			CHANNELS 6 Xposition Yposition Zposition Zrotation Xrotation Yrotation
			JOINT LeftAnkle
			{
				OFFSET 0.000000 -0.000002 -16.635300
				CHANNELS 6 Xposition Yposition Zposition Zrotation Xrotation Yrotation
				End Site
				{
					OFFSET 0.000000 -8.812399 0.000001
				}
			}
		}
	}
	JOINT RightHip
	{
		OFFSET -1.914800 0.018101 -2.699299
		CHANNELS 6 Xposition Yposition Zposition Zrotation Xrotation Yrotation
		JOINT RightKnee
		{
			OFFSET 0.000000 -0.000002 -20.148901
			CHANNELS 6 Xposition Yposition Zposition Zrotation Xrotation Yrotation
			JOINT RightAnkle
			{
				OFFSET 0.000000 -0.000002 -16.838301
				CHANNELS 6 Xposition Yposition Zposition Zrotation Xrotation Yrotation
				End Site
				{
					OFFSET 0.000000 -8.328398 0.000001
				}
			}
		}
	}
}
MOTION
Frames: 9
Frame Time: 0.041667
-11.405499 -4.318300 24.040804 1857.239904 43.154119 -28.735135 -0.673004 0.623897 5.369206 32.481487 -6.944051 -14.388663 0.000003 0.000001 4.415007 -5.461502 -4.402324 -0.638721 -0.000002 -0.000002 10.273303 -54.704225 -15.388157 14.487296 -0.000002 -0.000003 2.173903 -3.667057 -2.196842 -7.823570 2.359899 -0.565203 5.928105 22.281575 -17.456741 -23.232779 5.443693 0.000000 0.000002 8.197843 13.304945 -88.442740 0.000007 -0.000003 -10.615794 591.287509 -182.876280 177.664736 0.000005 -0.000005 -13.110305 -1021.466374 5.233022 2.951910 -2.636602 -1.718802 6.889704 179.659028 -166.054357 180.047407 -4.139103 0.000003 0.000009 389.983229 -424.584940 453.670290 -0.000006 0.000002 -10.471795 -32.239347 -9.228143 -366.225536 0.000005 -0.000001 -12.281900 341.675459 14.317847 45.660296 2.273396 0.176698 -2.518005 -44.855673 -153.563225 -50.096186 0.000006 -0.000001 -20.456396 56.735728 177.634738 -58.840720 -0.000006 -0.000002 -16.635298 55.089417 0.929523 32.218272 -1.914794 0.018097 -2.699299 -16.672058 151.458229 105.124049 0.000002 -0.000001 -20.148903 3.098792 -20.672452 3.690100 0.000003 -0.000001 -16.838303 192.731341 -20.051405 -89.637231
-11.344101 -4.316795 24.142204 1857.631574 43.742379 -29.496172 -0.673003 0.623901 5.369205 32.223586 -6.999211 -14.318295 -0.000000 -0.000002 4.415009 -5.206705 -4.405441 -0.645512 -0.000008 0.000000 10.273306 -54.620811 -15.864924 14.545287 -0.000002 -0.000002 2.173894 -3.671657 -2.281595 -7.803965 2.359898 -0.565204 5.928102 22.208693 -18.194833 -23.477923 5.443696 -0.000003 -0.000000 7.981381 14.101153 -87.937442 0.000006 -0.000003 -10.615802 591.126918 -182.808224 177.686155 0.000003 -0.000007 -13.110298 -1021.199724 5.676463 2.580781 -2.636604 -1.718802 6.889702 179.716279 -166.048073 180.922613 -4.139101 0.000000 0.000004 390.824982 -424.434512 454.011690 -0.000004 0.000001 -10.471796 -32.053794 -9.145962 -365.984540 0.000003 -0.000002 -12.281898 341.175025 14.345486 45.740670 2.273396 0.176703 -2.518009 -44.691690 -153.793881 -50.293029 -0.000000 -0.000002 -20.456398 57.401859 177.357692 -59.123675 -0.000006 -0.000006 -16.635298 54.831891 1.014875 32.059883 -1.914801 0.018104 -2.699300 -16.140312 151.532159 104.754092 0.000000 0.000001 -20.148901 3.102944 -20.450870 4.113750 0.000003 -0.000003 -16.838305 191.735937 -19.547154 -89.754314
-11.291100 -4.316696 24.249905 1858.044227 44.343255 -30.246639 -0.673001 0.623895 5.369205 32.050239 -7.085618 -14.180729 0.000001 -0.000002 4.415000 -5.046165 -4.415247 -0.656197 -0.000003 0.000004 10.273302 -54.561115 -16.291147 14.566280 -0.000002 0.000001 2.173899 -3.665532 -2.362134 -7.832513 2.359900 -0.565203 5.928101 22.166853 -18.864740 -23.685366 5.443699 -0.000003 -0.000007 7.754034 14.780977 -87.494839 0.000003 -0.000005 -10.615799 591.422037 -182.695239 177.705526 0.000003 -0.000005 -13.110303 -1021.371735 6.065819 2.171664 -2.636602 -1.718798 6.889704 179.660435 -165.903628 181.648403 -4.139096 0.000002 0.000004 391.696623 -424.266380 454.293968 -0.000005 0.000000 -10.471797 -31.667008 -9.023108 -365.746685 -0.000001 -0.000002 -12.281898 340.547795 14.372434 45.815335 2.273399 0.176700 -2.518006 -44.532939 -153.971056 -50.501954 -0.000000 -0.000002 -20.456396 58.081306 177.060196 -59.447692 -0.000003 -0.000004 -16.635298 54.538719 1.011186 31.827616 -1.914798 0.018097 -2.699297 -15.640104 151.571911 104.401163 -0.000003 0.000000 -20.148899 3.117124 -20.205276 4.558061 0.000002 0.000002 -16.838303 190.809449 -19.062875 -89.839923
-11.247299 -4.317995 24.354803 1858.438739 44.932014 -30.893888 -0.672999 0.623898 5.369205 31.780918 -7.192859 -14.123159 -0.000001 -0.000001 4.415006 -4.833426 -4.418224 -0.663979 -0.000004 0.000003 10.273299 -54.477517 -16.708369 14.587247 -0.000001 -0.000004 2.173904 -3.777153 -2.406330 -7.913063 2.359903 -0.565197 5.928101 22.108009 -19.519922 -23.864095 5.443696 -0.000003 -0.000005 7.601309 15.461759 -87.118175 0.000005 -0.000001 -10.615803 591.983752 -182.514430 177.738994 -0.000000 -0.000008 -13.110295 -1021.336874 6.410332 0.618171 -2.636600 -1.718799 6.889701 179.672607 -165.857893 182.318130 -4.139096 -0.000001 0.000004 392.778525 -424.242392 454.835247 -0.000004 0.000001 -10.471800 -31.292867 -8.808610 -365.509596 0.000000 -0.000003 -12.281902 340.020450 14.394431 45.870704 2.273400 0.176701 -2.518003 -44.368950 -154.088876 -50.695546 0.000002 0.000003 -20.456396 58.714376 176.815825 -59.792767 -0.000006 -0.000005 -16.635298 54.262506 0.879685 31.598870 -1.914794 0.018099 -2.699294 -15.205345 151.620692 104.148022 0.000000 -0.000004 -20.148895 2.842443 -19.990080 4.841080 0.000005 -0.000002 -16.838305 190.230290 -18.604196 -89.900514
-11.210402 -4.318995 24.452703 1858.813798 45.417777 -31.532207 -0.673006 0.623898 5.369209 31.455671 -7.193216 -14.076204 0.000002 0.000001 4.415004 -4.617013 -4.417301 -0.669631 0.000005 0.000002 10.273306 -54.403980 -17.109965 14.570221 -0.000003 -0.000004 2.173902 -3.828852 -2.456431 -7.941176 2.359903 -0.565201 5.928106 22.059971 -20.195030 -24.029517 5.443700 -0.000002 -0.000002 7.484457 16.018933 -86.769248 0.000003 -0.000003 -10.615799 592.883752 -182.237083 177.795971 0.000005 -0.000003 -13.110301 -1022.147535 6.679406 0.123700 -2.636600 -1.718801 6.889701 179.648319 -165.769279 182.894161 -4.139108 0.000004 0.000002 393.945941 -424.107646 455.465100 -0.000003 0.000004 -10.471797 -31.028388 -8.514744 -365.293898 0.000003 -0.000006 -12.281897 339.575067 14.378260 45.873500 2.273395 0.176705 -2.518003 -44.314903 -154.174814 -50.979839 0.000003 -0.000003 -20.456394 59.272634 176.546142 -60.139775 -0.000005 -0.000003 -16.635300 53.956572 0.675168 31.378910 -1.914800 0.018100 -2.699297 -14.789371 151.755124 103.840069 -0.000003 -0.000000 -20.148905 2.572839 -19.783675 5.117678 0.000003 -0.000002 -16.838301 189.745674 -18.173200 -89.940553
-11.182502 -4.320395 24.539305 1859.155417 45.850111 -32.106141 -0.673004 0.623902 5.369209 31.185933 -7.197041 -13.982050 0.000002 -0.000001 4.415004 -4.470342 -4.447505 -0.681341 0.000001 0.000000 10.273304 -54.388059 -17.435593 14.535672 -0.000002 -0.000005 2.173894 -3.872804 -2.516415 -7.935652 2.359902 -0.565205 5.928107 21.785201 -19.820371 -23.906933 5.443701 -0.000004 -0.000004 7.859506 15.851303 -86.778209 0.000007 -0.000003 -10.615793 593.722226 -182.082694 177.828087 0.000006 -0.000005 -13.110300 -1022.713622 6.822913 -0.329872 -2.636600 -1.718803 6.889711 180.015086 -166.368204 182.771354 -4.139099 0.000000 0.000005 396.842105 -424.157042 458.414485 0.000000 -0.000001 -10.471797 -30.900254 -8.070780 -364.911818 0.000002 -0.000005 -12.281898 339.804971 14.309055 45.053226 2.273398 0.176703 -2.518004 -44.268894 -154.237105 -51.231518 0.000004 0.000000 -20.456394 59.775377 176.286172 -60.458622 -0.000004 -0.000001 -16.635300 53.687944 0.453530 31.181081 -1.914797 0.018103 -2.699298 -14.389547 151.949005 103.540368 -0.000001 -0.000001 -20.148897 2.518498 -19.550109 5.467815 -0.000001 -0.000003 -16.838299 189.203439 -17.756907 -89.979990
-11.162202 -4.322191 24.611603 1859.487200 46.214849 -32.651794 -0.673002 0.623897 5.369209 30.916257 -7.184127 -13.848000 0.000004 -0.000001 4.415009 -4.371678 -4.522418 -0.706369 0.000001 0.000004 10.273298 -54.402433 -17.715474 14.507228 -0.000002 -0.000002 2.173896 -3.860534 -2.539766 -7.908803 2.359896 -0.565198 5.928105 21.348122 -18.439026 -23.433011 5.443700 -0.000004 -0.000005 8.663492 15.025827 -87.157148 0.000004 -0.000003 -10.615792 595.131103 -182.036685 177.810561 0.000004 -0.000004 -13.110297 -1023.609742 6.869278 -0.661391 -2.636604 -1.718798 6.889707 180.807443 -167.614522 181.954095 -4.139097 -0.000001 0.000004 401.617227 -424.365390 463.839895 -0.000002 -0.000004 -10.471799 -30.682391 -7.500501 -364.579269 0.000001 -0.000003 -12.281894 339.820435 14.199250 45.200095 2.273397 0.176701 -2.518004 -44.266979 -154.326321 -51.450329 0.000005 -0.000008 -20.456400 60.179588 176.039998 -60.728394 -0.000005 -0.000005 -16.635298 53.472011 0.235545 30.997154 -1.914797 0.018099 -2.699298 -14.053726 152.168910 103.262918 0.000000 0.000001 -20.148899 2.490715 -19.305808 5.764975 0.000004 -0.000002 -16.838299 188.618911 -17.389906 -90.041544
-11.149300 -4.323799 24.666603 1859.804121 46.562964 -33.122186 -0.673002 0.623899 5.369214 30.663615 -7.220435 -13.691132 0.000002 0.000001 4.415007 -4.320756 -4.635799 -0.740772 -0.000002 -0.000001 10.273304 -54.371748 -17.914977 14.486196 -0.000001 -0.000006 2.173897 -3.825472 -2.558384 -7.835641 2.359900 -0.565199 5.928103 20.775351 -16.070378 -22.553134 5.443692 -0.000001 -0.000004 9.865205 13.488567 -87.921146 0.000002 -0.000003 -10.615801 596.713849 -182.118265 177.750591 0.000002 0.000000 -13.110290 -1024.536353 6.826040 -0.871083 -2.636604 -1.718804 6.889705 182.113429 -169.270447 180.284114 -4.139104 0.000000 0.000005 407.815487 -424.078741 471.304636 0.000000 -0.000000 -10.471801 -30.477141 -6.949142 -364.223881 0.000000 -0.000005 -12.281901 340.033072 14.072524 45.473115 2.273398 0.176703 -2.518003 -44.202700 -154.424088 -51.530857 0.000004 -0.000001 -20.456394 60.526616 175.819574 -60.933333 -0.000002 -0.000003 -16.635300 53.251843 0.028249 31.069533 -1.914796 0.018098 -2.699300 -13.799035 152.342643 103.088127 -0.000001 -0.000002 -20.148903 2.554671 -19.040991 6.010657 0.000002 -0.000000 -16.838306 188.041474 -17.059113 -90.074875
-11.141900 -4.325197 24.704401 1860.098311 46.854299 -33.542526 -0.673005 0.623899 5.369209 30.451937 -7.247152 -13.485417 0.000000 0.000003 4.415011 -4.314143 -4.791143 -0.777701 -0.000001 -0.000001 10.273304 -54.354799 -18.013931 14.479832 -0.000001 -0.000001 2.173901 -3.778645 -2.559071 -7.760883 2.359898 -0.565205 5.928102 20.068808 -12.822881 -21.225496 5.443703 -0.000003 -0.000003 11.362371 11.161655 -89.040798 0.000005 -0.000003 -10.615801 598.502484 -182.301437 177.656144 0.000003 -0.000007 -13.110303 -1025.578367 6.681691 -1.014057 -2.636600 -1.718802 6.889703 182.809713 -175.130435 177.128853 -4.139100 0.000001 0.000003 423.703436 -424.864022 488.558623 -0.000005 0.000003 -10.471802 -29.747308 -6.518981 -363.861990 0.000001 -0.000002 -12.281900 340.158365 13.936960 45.824514 2.273396 0.176705 -2.518006 -44.103037 -154.505477 -51.519574 0.000005 -0.000004 -20.456396 60.812924 175.550902 -61.073721 -0.000007 -0.000004 -16.635300 53.065352 -0.030661 30.964355 -1.914798 0.018102 -2.699297 -13.612155 152.509190 102.946175 -0.000000 -0.000002 -20.148901 2.990244 -18.690239 6.373553 0.000005 -0.000000 -16.838303 187.154601 -16.759619 -90.126409
